<svg xmlns="http://www.w3.org/2000/svg" xmlns:xlink="http://www.w3.org/1999/xlink" width="16" height="16" viewBox="0 0 16 16">
  <defs>
    <clipPath id="clip-path">
      <rect id="長方形_400" data-name="長方形 400" width="16" height="16" transform="translate(1302 1093)" fill="#ff0401"/>
    </clipPath>
  </defs>
  <g id="icon" transform="translate(-1130 -1093)">
    <g id="マスクグループ_10" data-name="マスクグループ 10" transform="translate(-172)" clip-path="url(#clip-path)">
      <path id="パス_1955" data-name="パス 1955" d="M676.611,377.15v14.006h12v-9.923l-4.606-4.083Zm.666.609h6.334v3.958h4.333v8.829H677.277Zm7,.48,3.236,2.869h-3.236Zm-2.077,4.353a.743.743,0,0,0-.622.322.916.916,0,0,0-.094.612,3.367,3.367,0,0,0,.43,1.111,7.794,7.794,0,0,1-.323.978,9.09,9.09,0,0,1-.7,1.19,9.85,9.85,0,0,0-.953.4,1.481,1.481,0,0,0-.594.525.5.5,0,0,0-.031.415.594.594,0,0,0,.313.3.869.869,0,0,0,.817-.09,2.633,2.633,0,0,0,.635-.6c.1-.128.185-.333.287-.482.327-.132.558-.269.929-.385a12.305,12.305,0,0,1,1.417-.318,2.429,2.429,0,0,0,1.264.43,1.4,1.4,0,0,0,.651-.107.6.6,0,0,0,.313-.506.552.552,0,0,0-.179-.4.841.841,0,0,0-.375-.184,2.785,2.785,0,0,0-.915-.029c-.183.018-.43.107-.634.142-.027-.019-.053-.028-.081-.049a5.16,5.16,0,0,1-1.093-1.229c-.017-.027-.015-.046-.032-.074a6.79,6.79,0,0,0,.24-.73,1.681,1.681,0,0,0-.025-.779.681.681,0,0,0-.217-.324A.7.7,0,0,0,682.2,382.592Zm-.027.607.016,0a.1.1,0,0,1,.014.031,1.615,1.615,0,0,1,0,.355c-.007-.036-.053-.1-.057-.135a.47.47,0,0,1,.016-.247A.009.009,0,0,1,682.173,383.2Zm.2,2.136a5.636,5.636,0,0,0,.689.754c-.341.083-.647.113-.991.221-.073.023-.115.055-.186.079.1-.194.228-.338.319-.538C682.289,385.669,682.3,385.516,682.375,385.335Z" transform="translate(627.389 716.85)" fill="#ff0401"/>
    </g>
  </g>
</svg>
