<svg xmlns="http://www.w3.org/2000/svg" xmlns:xlink="http://www.w3.org/1999/xlink" width="16" height="16" viewBox="0 0 16 16">
  <defs>
    <clipPath id="clip-path">
      <rect id="長方形_400" data-name="長方形 400" width="16" height="16" transform="translate(1302 1093)" fill="#b30f00"/>
    </clipPath>
  </defs>
  <g id="icon" transform="translate(-1130 -1093)">
    <g id="マスクグループ_10" data-name="マスクグループ 10" transform="translate(-172)" clip-path="url(#clip-path)">
      <path id="パス_1955" data-name="パス 1955" d="M676.611,377.15v14.006h12v-9.923l-4.606-4.083Zm.666.609h6.334v3.958h4.333v8.829H677.277Zm7,.48,3.236,2.869h-3.236Z" transform="translate(627.389 716.85)" fill="#b30f00"/>
      <path id="パス_1958" data-name="パス 1958" d="M-.866-1.849V0h-.865V-4.977h1.9a2.326,2.326,0,0,1,.771.118,1.634,1.634,0,0,1,.569.33,1.4,1.4,0,0,1,.354.5,1.624,1.624,0,0,1,.121.632,1.654,1.654,0,0,1-.121.649,1.287,1.287,0,0,1-.354.485,1.609,1.609,0,0,1-.569.3,2.567,2.567,0,0,1-.771.106Zm0-.694H.173A1.328,1.328,0,0,0,.6-2.6a.78.78,0,0,0,.3-.174.669.669,0,0,0,.169-.268,1.049,1.049,0,0,0,.053-.34,1.063,1.063,0,0,0-.053-.335A.766.766,0,0,0,.9-4.008a.823.823,0,0,0-.3-.2,1.13,1.13,0,0,0-.429-.073H-.866Z" transform="translate(1310 1105)" fill="#b30f00"/>
    </g>
  </g>
</svg>
