<svg xmlns="http://www.w3.org/2000/svg" width="575.627" height="160" viewBox="0 0 575.627 160">
  <g id="main" transform="translate(-440 -405.937)">
    <g id="col1" transform="translate(440 405.937)">
      <path id="パス_1987" data-name="パス 1987" d="M19.137,69.965V50.829a75.257,75.257,0,0,1-7.186,4.425,48.779,48.779,0,0,1-7.488,3.29,14.615,14.615,0,0,0-1.211-2.193q-.833-1.286-1.7-2.5A11.419,11.419,0,0,0,0,52.039a46.123,46.123,0,0,0,8.169-3.4,57.656,57.656,0,0,0,7.867-4.992H2.42V37.517H22.842q1.136-1.285,2.043-2.5h-11.5V13.69h9V10.816H3.4V4.69H22.389V.075h8.4V4.69H42.509V.075h8.4V4.69H69.36v6.126H50.9V13.69h9.378V35.021H34.037a13.242,13.242,0,0,1-.718,1.248q-.417.642-.794,1.248H70.948v6.126H57.031a62.65,62.65,0,0,0,8.207,4.69A49.115,49.115,0,0,0,73.6,51.51a15.341,15.341,0,0,0-1.814,2.042q-.984,1.287-1.816,2.609a21.158,21.158,0,0,0-1.286,2.307,59.7,59.7,0,0,1-6.77-3.025,70.293,70.293,0,0,1-7.147-4.237V69.965Zm3.176-48.182H51.359V19.362H22.313Zm0,7.64H51.359V27H22.313Zm2.118,17.17H48.787q-.757-.754-1.513-1.475a14.4,14.4,0,0,1-1.361-1.475H27.456q-.679.757-1.436,1.475t-1.589,1.475m2.723,8.85H47.2v-2.8H27.154Zm0,8.4H47.2V60.964H27.154Zm3.63-50.149H42.509V10.815H30.784Z"/>
      <path id="パス_1988" data-name="パス 1988" d="M97.875,68a19.9,19.9,0,0,0-.869-2.874,30.276,30.276,0,0,0-1.551-3.48,12.7,12.7,0,0,0-1.815-2.722q12.1.3,18.493-2.875t6.392-9a6.085,6.085,0,0,0-2.723-5.3,12.229,12.229,0,0,0-7.11-1.89,28.467,28.467,0,0,0-7.262,1.021,24.152,24.152,0,0,0-7.3,3.328,19.418,19.418,0,0,0-5.786,6.165L80.252,46.82A28.968,28.968,0,0,0,82.861,40.2a75.212,75.212,0,0,0,1.778-8.283q.68-4.311.983-8.169A39.066,39.066,0,0,0,85.7,17.4l9.454,1.135a57.6,57.6,0,0,1-.605,8.737,67.7,67.7,0,0,1-2.118,9.945,34.988,34.988,0,0,1,8.4-4.084,26.572,26.572,0,0,1,8.245-1.437,24.313,24.313,0,0,1,10.249,2,16.252,16.252,0,0,1,6.77,5.522,13.87,13.87,0,0,1,2.42,8.056,17.26,17.26,0,0,1-3.29,10.325q-3.291,4.577-10.061,7.3T97.875,68m12.556-48.484a36.727,36.727,0,0,0-4.5-3.025q-2.61-1.512-5.484-2.874t-5.635-2.383a29.206,29.206,0,0,0-4.879-1.4l4.538-7.866a42.881,42.881,0,0,1,4.691,1.626q2.721,1.1,5.71,2.458t5.673,2.724a47.86,47.86,0,0,1,4.425,2.5Z"/>
      <path id="パス_1989" data-name="パス 1989" d="M156.874,66.335a32.649,32.649,0,0,1-9.8-1.211,9.359,9.359,0,0,1-5.446-4.084,15.254,15.254,0,0,1-1.7-7.791v-50l9.908.605q-.151,1.288-.3,4.312t-.227,6.505q-.076,2.8-.113,6.126t-.039,7.337v23.3q0,3.329,1.854,4.538t6.467,1.21a35.664,35.664,0,0,0,14.03-2.8,43.287,43.287,0,0,0,11.459-6.959q.075,1.437.341,3.441t.6,3.783q.341,1.778.567,2.761a48.623,48.623,0,0,1-12.669,6.429,45.448,45.448,0,0,1-14.938,2.5"/>
      <path id="パス_1990" data-name="パス 1990" d="M240.68,64.594a137.263,137.263,0,0,1-13.842,1.664,73.628,73.628,0,0,1-12.556-.151,35.7,35.7,0,0,1-10.211-2.458,16.142,16.142,0,0,1-6.845-5.143,13.326,13.326,0,0,1-2.458-8.207,15.094,15.094,0,0,1,4.576-11.081,39.08,39.08,0,0,1,12.291-7.9,48.76,48.76,0,0,1-2.08-7.828,76.5,76.5,0,0,1-1.173-9.984q-.3-5.406-.075-11.082h9.757a64.122,64.122,0,0,0-.3,8.963q.15,4.806.718,9.191a52.36,52.36,0,0,0,1.475,7.563q3.781-1.209,7.98-2.344t8.585-2.27l1.815,9.456a88.878,88.878,0,0,0-12.783,2.382,67.854,67.854,0,0,0-10.967,3.857,28.456,28.456,0,0,0-7.678,4.916,7.793,7.793,0,0,0-2.836,5.636,5.747,5.747,0,0,0,3.026,5.068,20.365,20.365,0,0,0,8.32,2.533,57.185,57.185,0,0,0,12.14,0,92.894,92.894,0,0,0,14.485-2.61,19.144,19.144,0,0,0-1.1,4.842,33.681,33.681,0,0,0-.265,4.991"/>
      <path id="パス_1991" data-name="パス 1991" d="M256.791,70.494q-1.665-1.134-3.592-2.269a26.251,26.251,0,0,0-3.9-1.89,30.76,30.76,0,0,0,5.939-11.611,62.62,62.62,0,0,0,1.853-16.452V21.329h16.338q-.758-1.965-1.664-4.122t-1.74-3.82H257.094V6.353h25.414V0h9.833V6.353h25.944v7.034h-13.01q-.606,1.742-1.475,3.858t-1.853,4.084h17.17v7.337h-53.4v9.606q0,1.893-.075,3.744t-.227,3.593a29.931,29.931,0,0,0,3.895-5.067,46.065,46.065,0,0,0,3.1-5.938,40.586,40.586,0,0,0,2.005-5.635l7.867,2.42q-.3,1.21-.757,2.5t-1.059,2.573h7.186V30.482H296.5v5.976h18.834v7.034H296.5v4.84h14.3v7.11H296.5v5.447h22.843V68H265.036V60.889h22.616V55.442h-13.54v-7.11h13.54v-4.84H276.836q-1.212,1.967-2.5,3.819a34.591,34.591,0,0,1-2.8,3.517,35.915,35.915,0,0,0-2.95-2.118,33.506,33.506,0,0,0-3.253-1.891,56.533,56.533,0,0,1-2.8,12.745,43.324,43.324,0,0,1-5.749,10.93m25.717-49.165h10.363q.831-1.739,1.739-3.9t1.588-4.047H279.18q.908,1.893,1.778,4.047t1.55,3.9"/>
      <path id="パス_1992" data-name="パス 1992" d="M359.281,70.268V55.215a60.328,60.328,0,0,1-7.677,5.75,88.7,88.7,0,0,1-8.774,4.916,75.132,75.132,0,0,1-8.736,3.63,21.152,21.152,0,0,0-1.135-2.231q-.758-1.323-1.664-2.647a12.032,12.032,0,0,0-1.739-2.08A66.045,66.045,0,0,0,337.5,59.49q4.234-1.929,8.358-4.311a76.576,76.576,0,0,0,7.375-4.8H329.707V43.492h29.574v-3.4H337.573v-6.58h21.708V30.18H334.169V23.448h13.766q-.529-1.284-1.058-2.534a16.85,16.85,0,0,0-1.135-2.231H329.707V11.8h10.74q-.758-1.966-1.777-4.312a19.783,19.783,0,0,0-2.08-3.781l7.639-3.1a26.024,26.024,0,0,1,1.626,2.912q.868,1.778,1.627,3.48t1.21,2.836L343.926,11.8h8.4V.681h8.244V11.8h5.219V.681h8.32V11.8h8.925L376.9,9.682a30.129,30.129,0,0,0,1.7-2.761q.943-1.7,1.814-3.479A29.224,29.224,0,0,0,381.67.605l8.32,2.421q-.681,1.287-1.664,3.025T386.4,9.342q-.948,1.551-1.551,2.458H397.1v6.883H380.989q-.982,2.571-1.966,4.765h12.934V30.18H367.676v3.328h21.255v6.58H367.676v3.4h29.5v6.884h-23.6a79,79,0,0,0,7.338,4.8,86.122,86.122,0,0,0,8.32,4.273,69.566,69.566,0,0,0,7.942,3.025,15.065,15.065,0,0,0-1.665,2.081q-.906,1.322-1.663,2.684a23.472,23.472,0,0,0-1.135,2.269,79.711,79.711,0,0,1-8.623-3.592,81.952,81.952,0,0,1-8.7-4.879,66.606,66.606,0,0,1-7.716-5.748V70.268Zm-1.891-46.82h12.027q.528-1.059,1.059-2.307t1.058-2.458H355.348q.6,1.21,1.135,2.5t.907,2.269"/>
      <path id="パス_1993" data-name="パス 1993" d="M440.818,68a47.636,47.636,0,0,1-11.194-1.21,17.241,17.241,0,0,1-7.867-3.9,9.218,9.218,0,0,1-2.874-7.072,10.918,10.918,0,0,1,2.194-6.618,22.124,22.124,0,0,1,6.051-5.446,57.05,57.05,0,0,1,8.773-4.5v-.6a5.125,5.125,0,0,0-1.323-3.894,5.313,5.313,0,0,0-3.366-1.4,15.639,15.639,0,0,0-6.656.983,17.837,17.837,0,0,0-6.278,4.387q-.908.907-2.345,2.307t-2.874,2.761q-1.437,1.361-2.5,2.269l-6.581-6.505a50.27,50.27,0,0,0,9.984-8.774,60.767,60.767,0,0,0,7.942-11.27q-4.236.153-7.715.265t-5.219.037l-.3-8.7q2.57.225,7.148.226t9.946-.226a34.008,34.008,0,0,0,1.967-9.38l9,.454a36.34,36.34,0,0,1-1.513,8.32q5.6-.453,10.4-1.021A47.62,47.62,0,0,0,453,8.169l.529,8.4q-2.118.378-5.521.794t-7.526.794q-4.123.378-8.434.68-.984,2.12-2.231,4.273t-2.61,4.123a16.387,16.387,0,0,1,6.127-1.21,12.017,12.017,0,0,1,7.526,2.345q3.063,2.344,3.82,7.715,4.234-1.435,8.66-2.61t8.585-2.156l2.572,8.321q-5.3.756-10.287,1.853t-9.3,2.459V54.005h-8.925V47.349a28.227,28.227,0,0,0-6.052,3.744q-2.27,1.929-2.269,3.668,0,2.574,3.1,3.593a32.414,32.414,0,0,0,9.455,1.022A55.466,55.466,0,0,0,446,59.035q3.215-.341,6.43-.907t5.634-1.248q-.151.982-.264,2.836t-.114,3.669q0,1.814.076,2.722a63.5,63.5,0,0,1-8.32,1.4,81.89,81.89,0,0,1-8.623.492"/>
    </g>
    <g id="col2" transform="translate(440 405.937)">
      <path id="パス_1994" data-name="パス 1994" d="M142.546,159.925a103.3,103.3,0,0,1-16.565-4.35,68.117,68.117,0,0,1-14.143-6.921,63.127,63.127,0,0,1-13.616,6.581,134.066,134.066,0,0,1-17.094,4.614,38.508,38.508,0,0,0-1.7-4.349,29.374,29.374,0,0,0-2.232-4.2,95.99,95.99,0,0,0,15.053-3.479,64.372,64.372,0,0,0,12.026-5.22,50.416,50.416,0,0,1-6.732-7.979,59.325,59.325,0,0,1-5.37-9.795H84v-8.4H106.77v-7.488H77.725V101H106.77V90.413h9.378V101h29.045v7.942H116.148v7.488h16.111l3.252,3.252a96.951,96.951,0,0,1-7.337,12.9,59.647,59.647,0,0,1-8.471,9.946,67.571,67.571,0,0,0,12.9,5.332,81.472,81.472,0,0,0,14.107,2.913,24.744,24.744,0,0,0-1.588,2.836q-.832,1.7-1.514,3.441t-1.058,2.875m-30.708-22.616a48.324,48.324,0,0,0,10.514-12.48h-20.8a32.44,32.44,0,0,0,4.388,6.693,43.888,43.888,0,0,0,5.9,5.787"/>
      <path id="パス_1995" data-name="パス 1995" d="M197.24,157.2a19.2,19.2,0,0,1-7.26-1.135,6.874,6.874,0,0,1-3.858-3.971,20.8,20.8,0,0,1-1.059-7.828,33.993,33.993,0,0,0-.228-6.732,2.88,2.88,0,0,0-1.436-2.269q-2.5-1.058-4.463,1.286-3.783,4.388-7.223,8.434t-6.052,7.147q-2.608,3.1-3.895,4.765l-7.715-5.672q1.815-1.59,4.69-4.539t6.278-6.693q3.4-3.746,6.769-7.64t6.241-7.3q2.872-3.4,4.613-5.749-2.118.379-5.219.833t-6.391.869q-3.289.417-6.013.719t-4.085.378l-1.361-8.4q1.889,0,4.992-.189t6.807-.567q3.705-.378,7.488-.87t7.035-1.059q3.25-.567,5.446-1.173l6.428,5.371a29.765,29.765,0,0,0-2.646,2.685q-1.816,2.006-4.312,4.841t-5.37,6.089a4.673,4.673,0,0,1,2.534.113,8.473,8.473,0,0,1,2.382,1.021,5.347,5.347,0,0,1,1.7,1.74,8.374,8.374,0,0,1,.946,2.988,31.336,31.336,0,0,1,.226,5.256,20.16,20.16,0,0,0,.454,5.636,3.079,3.079,0,0,0,1.778,2.231,11.023,11.023,0,0,0,3.29.529q1.89,0,4.387-.189t4.954-.567a42.46,42.46,0,0,0,4.2-.832,11.183,11.183,0,0,0-.567,2.723,32.916,32.916,0,0,0-.189,3.555q0,1.815.075,2.95-2.194.378-4.84.643t-5.144.416q-2.494.151-4.387.151m-6.277-50.6q-1.665-.378-4.5-1.248t-5.976-1.967q-3.138-1.1-5.823-2.193a29.527,29.527,0,0,1-4.047-1.929L174.7,91.7a23.179,23.179,0,0,0,3.442,1.664q2.382.985,5.294,2t5.711,1.853q2.8.834,4.69,1.21Z"/>
      <path id="パス_1996" data-name="パス 1996" d="M243.454,156.219q-9.075,0-13.388-3.442a10.431,10.431,0,0,1-4.311-8.434,9.378,9.378,0,0,1,1.589-5.521,10.651,10.651,0,0,1,4.16-3.517,12.462,12.462,0,0,1,5.521-1.248,12.152,12.152,0,0,1,9.039,3.479,16.3,16.3,0,0,1,4.424,8.622,10.916,10.916,0,0,0,4.577-3.933,11.133,11.133,0,0,0,1.777-6.353,10.731,10.731,0,0,0-1.512-5.673,10.854,10.854,0,0,0-4.274-3.971,13.356,13.356,0,0,0-6.391-1.475,28.769,28.769,0,0,0-8.813,1.21,19.12,19.12,0,0,0-6.769,3.858q-1.36,1.211-3.593,3.1t-4.2,3.4l-6.2-6.657a62.661,62.661,0,0,0,7.262-4.992q3.856-3.024,7.79-6.731t7.489-7.678a98.854,98.854,0,0,0,6.353-7.828q-3.253.756-7.072,1.437t-7.337,1.134q-3.518.455-5.938.6l-1.664-8.622a38.637,38.637,0,0,0,5.106-.038q3.063-.187,6.618-.53t6.921-.869q3.364-.529,6.051-1.1a19.336,19.336,0,0,0,3.971-1.172l6.807,4.538a61.067,61.067,0,0,1-7.072,10.627,137.521,137.521,0,0,1-9.643,10.7,13.241,13.241,0,0,1,2.874-.946,14.769,14.769,0,0,1,3.1-.34,22.282,22.282,0,0,1,10.362,2.269,16.937,16.937,0,0,1,6.846,6.316,17.8,17.8,0,0,1,2.458,9.417,19.235,19.235,0,0,1-2.837,10.286,20.26,20.26,0,0,1-7.979,7.338,25.522,25.522,0,0,1-12.1,2.723m-.983-8.321a9.123,9.123,0,0,0-1.777-4.614,4.485,4.485,0,0,0-3.669-1.739,3.374,3.374,0,0,0-2.042.6,2.1,2.1,0,0,0-.832,1.815,3.082,3.082,0,0,0,1.7,2.647q1.7,1.061,5.711,1.211a1.444,1.444,0,0,0,.454.075Z"/>
      <path id="パス_1997" data-name="パス 1997" d="M286.871,124.223a42.113,42.113,0,0,0-3.744-2.874q-2.384-1.664-4.954-3.214a36.844,36.844,0,0,0-4.538-2.383l4.463-7.262q3.327,1.589,7.223,3.82a46.7,46.7,0,0,1,6.542,4.425,24.342,24.342,0,0,0-1.625,2.156q-1.021,1.475-1.967,2.988t-1.4,2.344m-4.386,34.264-8.018-5.068a65.7,65.7,0,0,0,4.2-7.034q2-3.858,3.592-7.791a68.563,68.563,0,0,0,2.5-7.185A14.53,14.53,0,0,0,286.758,133q1.323.908,2.836,1.778t2.5,1.474a96.006,96.006,0,0,1-4.273,11.611,107.134,107.134,0,0,1-5.332,10.627m7.942-51.585a42.1,42.1,0,0,0-3.745-2.874q-2.382-1.664-4.954-3.177a40.012,40.012,0,0,0-4.538-2.345l4.538-7.11a42.969,42.969,0,0,1,4.727,2.345q2.685,1.514,5.144,3.1a39.808,39.808,0,0,1,3.895,2.8q-.606.681-1.664,2.119t-2,2.874q-.946,1.437-1.4,2.269M311.3,158.79q-4.386,0-6.2-1.324t-1.815-4.5V137.233h19.061v-4.16H306.235V130.8a57.6,57.6,0,0,1-10.741,8.547,18.4,18.4,0,0,0-2.5-3.48A19.331,19.331,0,0,0,289.973,133a37.734,37.734,0,0,0,7.9-5.445,50.573,50.573,0,0,0,6.769-7.111H293.452v-7.488h11.5v-6.127H296.7V99.263h8.245V90.791h8.622v8.472h8.623V90.791h8.623v8.472h9.3v7.563h-9.3v6.127H343.6v7.488H331.725a47.5,47.5,0,0,0,7.3,6.845,48.356,48.356,0,0,0,8.055,5.106,19.268,19.268,0,0,0-1.966,1.929,29.983,29.983,0,0,0-2.119,2.609q-.982,1.362-1.512,2.269a65.552,65.552,0,0,1-10.968-8.471v13.236H311.983v4.917a1.9,1.9,0,0,0,.53,1.513,3.44,3.44,0,0,0,2.117.454h11.951a7.309,7.309,0,0,0,4.955-1.438q1.624-1.436,2-5.9a26.089,26.089,0,0,0,2.42,1.021q1.512.567,3.1,1.059t2.724.794a22.11,22.11,0,0,1-2.345,7.64,8.406,8.406,0,0,1-4.123,3.744,16.745,16.745,0,0,1-6.24,1.021Zm-.907-32.6H326.2a61.488,61.488,0,0,1-4.386-5.749h-7.338q-.906,1.438-1.929,2.913t-2.155,2.836m3.176-13.237h8.623v-6.127h-8.623Z"/>
      <path id="パス_1998" data-name="パス 1998" d="M364.151,123.921a31.2,31.2,0,0,0-3.593-2.8q-2.307-1.59-4.8-3.064a38.311,38.311,0,0,0-4.463-2.307l4.463-7.261q3.328,1.589,7.073,3.706a40.358,40.358,0,0,1,6.315,4.311,24.315,24.315,0,0,0-1.626,2.156q-1.021,1.476-1.967,2.95t-1.4,2.307m-4.689,34.642-7.942-5.219a62.73,62.73,0,0,0,3.29-5.521q1.7-3.179,3.252-6.619t2.761-6.769q1.209-3.328,1.891-5.9.681.606,2.042,1.588t2.874,1.929q1.512.946,2.5,1.475a56.611,56.611,0,0,1-1.928,6.051q-1.248,3.328-2.724,6.807t-3.063,6.657q-1.587,3.175-2.949,5.521m6.505-52.114a41.754,41.754,0,0,0-3.556-2.761q-2.193-1.55-4.538-2.95a35.918,35.918,0,0,0-4.311-2.231L358.1,91.4a40.174,40.174,0,0,1,4.463,2.194q2.42,1.362,4.689,2.836a37.365,37.365,0,0,1,3.782,2.762q-.606.679-1.664,2.117t-2,2.875q-.947,1.437-1.4,2.269M395.541,160q-.076-.984-.34-2.647t-.568-3.253a11.3,11.3,0,0,0-.68-2.42h8.471a12.57,12.57,0,0,0,3.063-.3,3.12,3.12,0,0,0,1.891-1.437,10.5,10.5,0,0,0,1.172-3.555H371.639q.454-1.207,1.1-3.479t1.324-4.765q.681-2.5,1.21-4.614t.756-3.1h31.693V127.7H371.791v-6.732h7.639q-.832-1.209-1.929-2.534a11.892,11.892,0,0,0-1.7-1.777q5.6-1.664,7.829-4.614a11.569,11.569,0,0,0,2.232-7.186v-2.118h-9.3l5.748,4.236a24.7,24.7,0,0,1-2.987,3.782,52.3,52.3,0,0,1-3.82,3.669q-1.97,1.7-3.479,2.76a26.218,26.218,0,0,0-2.572-2.837,21.037,21.037,0,0,0-2.8-2.382,21.781,21.781,0,0,0,3.479-2.571q1.891-1.664,3.594-3.48a25.8,25.8,0,0,0,2.609-3.177h-4.841V95.784H390.7V90.111h9.53v5.673h20.12v6.958h-14.9v11.5q0,5.976-5.975,6.732h17.17V136.78h-32.9l-.681,2.874H419.14a70.676,70.676,0,0,1-1.513,10.627,15.819,15.819,0,0,1-2.685,6.165,8.209,8.209,0,0,1-4.236,2.836,22.9,22.9,0,0,1-6.164.718Zm-11.648-39.029H394.1a30.106,30.106,0,0,0-.642-3.744,15.573,15.573,0,0,0-1.1-3.366h2.722a3.326,3.326,0,0,0,1.966-.453,2.176,2.176,0,0,0,.606-1.816v-8.85h-4.01v2.118A18.4,18.4,0,0,1,391.3,114.5a17.628,17.628,0,0,1-7.412,6.467m31.616-2.269a28.974,28.974,0,0,0-2.761-3.631q-1.777-2.042-3.668-3.857a22.145,22.145,0,0,0-3.327-2.723l5.747-4.917q1.436,1.136,3.29,2.913t3.669,3.706a27.848,27.848,0,0,1,2.875,3.517,18.164,18.164,0,0,0-2.988,2.269q-1.779,1.589-2.837,2.723"/>
      <path id="パス_1999" data-name="パス 1999" d="M469.764,158.336a94.833,94.833,0,0,1-13.426-.794,32.878,32.878,0,0,1-8.925-2.421,20.415,20.415,0,0,1-5.938-4.046q-1.362,1.061-3.441,2.383t-4.2,2.609q-2.118,1.285-3.707,2.193l-3.479-8.547q1.285-.454,3.253-1.286t3.895-1.777a27.492,27.492,0,0,0,3.064-1.7V125.812h-8.7v-7.867h16.943v25.868q1.437,3.708,7.337,5.182t17.321,1.475q9.681,0,16.641-.3t11.27-.907a17.085,17.085,0,0,0-.832,2.533q-.454,1.7-.757,3.48t-.378,2.912q-2.118,0-5.522.038l-7.223.075q-3.821.037-7.3.038Zm-2.571-9.606v-4.841h-18.38V137.46h18.38v-3.026H450.779V111.743h16.414v-3.177H454.107v-2.042h-7.186V103.2a26.076,26.076,0,0,0-2.042,1.7q-1.212,1.1-2.345,2.194a21.094,21.094,0,0,0-1.739,1.853,47.171,47.171,0,0,0-3.291-3.933q-2.08-2.27-4.311-4.425a41.051,41.051,0,0,0-3.971-3.442l5.976-5.6a38.665,38.665,0,0,1,3.857,3.1q2.193,1.968,4.349,4.085a48.787,48.787,0,0,1,3.517,3.782V92.229h47.653v14.3h-7.186v2.042h-12.1v3.177h16.565v22.691H475.286v3.026h19.893v6.429H475.286v4.841Zm-12.4-46.215h12.4V98.582h-12.4Zm4.009,18.078h8.4V117.34h-8.4Zm0,8.244h8.4v-3.4h-8.4Zm16.489-26.322h11.346V98.582H475.286Zm0,18.078h8.623V117.34h-8.623Zm0,8.244h8.623v-3.4h-8.623Z"/>
      <path id="パス_2000" data-name="パス 2000" d="M547.717,158.336a92.383,92.383,0,0,1-13.313-.794,31.021,31.021,0,0,1-8.7-2.421,20.86,20.86,0,0,1-5.824-4.046q-1.362.984-3.517,2.307t-4.387,2.647q-2.232,1.323-3.9,2.232l-3.706-8.926q1.512-.528,3.668-1.437t4.2-1.815q2.043-.907,3.026-1.437V125.812h-9v-7.866h17.624v25.566q1.436,3.629,6.921,5.142t16.9,1.513q9.681,0,16.64-.34t11.27-.946a16.927,16.927,0,0,0-.831,2.61q-.456,1.777-.757,3.668t-.378,3.026q-2.118,0-5.522.038t-7.223.075q-3.82.037-7.3.038Zm-26.852-49.391a40.147,40.147,0,0,0-3.631-3.782q-2.268-2.117-4.765-4.2a39.058,39.058,0,0,0-4.613-3.366l5.672-5.824a38.937,38.937,0,0,1,4.5,3.063q2.61,2.006,5.069,4.16a39.228,39.228,0,0,1,3.819,3.744q-.681.606-1.89,1.778t-2.383,2.383a20.024,20.024,0,0,0-1.778,2.042m47.652,39.634a37.131,37.131,0,0,1-10.438-6.429,34.08,34.08,0,0,1-7.564-9.3,33.12,33.12,0,0,1-7.639,8.623,50.908,50.908,0,0,1-11.119,6.732,22.372,22.372,0,0,0-1.512-2.5q-.985-1.436-2.081-2.76a11.5,11.5,0,0,0-1.929-1.928q12.555-4.69,17.019-14.145H527.37v-7.942h17.851a2.579,2.579,0,0,1,.038-.454,2.89,2.89,0,0,0,.037-.454V112.2H529.639v-7.715h9.3a55.725,55.725,0,0,0-3.026-5.786,37.065,37.065,0,0,0-3.4-4.879l7.336-3.706a52.066,52.066,0,0,1,3.934,5.635q1.965,3.216,3.177,5.635-1.362.681-3.026,1.475t-3.177,1.626h10.589q1.134-2.043,2.421-4.879t2.345-5.521q1.059-2.685,1.513-4.274l8.471,2.345q-.907,2.5-2.534,5.975t-3.139,6.354h10.211V112.2H554.6v6.732h19.212v7.942h-17.4a24.162,24.162,0,0,0,6.657,8.282,36.8,36.8,0,0,0,10.891,6.013,19.1,19.1,0,0,0-1.928,2.119q-1.1,1.36-2.043,2.8a24.94,24.94,0,0,0-1.475,2.5"/>
    </g>
  </g>
</svg>
